Subj06run_81
version=1
nRows=37
nColumns=19
inDegrees=no
endheader
time	l_ground_force_vx	l_ground_force_vy	l_ground_force_vz	l_ground_force_px	l_ground_force_py	l_ground_force_pz	ground_force_vx	ground_force_vy	ground_force_vz	ground_force_px	ground_force_py	ground_force_pz	l_ground_torque_x	l_ground_torque_y	l_ground_torque_z	ground_torque_x	ground_torque_y	ground_torque_z	
14.59	-57.2590563794428	723.197696366541	35.3252707653219	0.00754776618061913	0	-0.0335949327523432	-43.4582985101251	241.103833211331	-20.4148466863966	-0.0137926709216489	0	-0.0120340104706901	0	4.61960193094176	0	0	1.23550857696052	0
14.6	-68.4518647425113	792.399844525378	39.4262519225021	0.0061346999669494	0	-0.0354128704448508	-56.6269738770114	261.606911518883	-17.8910034223964	-0.00188462999334446	0	-0.00743776188763226	0	5.08966963344804	0	0	1.40345822101512	0
14.61	-71.1567292998539	866.958704365916	45.0332748598004	0.000759139825075297	0	-0.0375564194999337	-67.1112402090986	273.149645667005	-14.2593610848755	0.0100505499706979	0	-0.00315158045095652	0	5.66711229272913	0	0	1.21967551207578	0
14.62	-65.8140107041753	942.453886245363	50.6789747085379	-0.00913902318491322	0	-0.0393009389915903	-75.1504909272148	281.448234939128	-10.9160358545015	0.0164471715667401	0	0.000208343549967936	0	6.58980942293718	0	0	0.3981745582884	0
14.63	-53.7428727838588	1009.27871818961	54.3408521555712	-0.0231072006077744	0	-0.0402979695841618	-80.8549026493751	288.810853833261	-9.5678016848559	0.0125352011216452	0	0.00150481900117984	0	7.67778354288486	0	0	-0.853153920248767	0
14.64	-39.4852925808706	1058.68469523944	56.4066585055086	-0.0404287634579731	0	-0.0404024855752498	-82.1432018540828	295.45509367508	-10.2396778454667	-0.00280625072106103	0	0.000464342918097875	0	8.58548635960025	0	0	-2.11130833328776	0
14.65	-24.6743983177502	1083.6905362635	56.3098099597969	-0.0601317289891904	0	-0.039791716393128	-76.4425332370758	300.392145050642	-12.9302556266129	-0.0271025399041394	0	-0.00256832633212141	0	8.99299787385046	0	0	-2.81344692340178	0
14.66	-8.79493938530379	1081.96887156027	54.6492238010498	-0.081138497361158	0	-0.0387468202384364	-64.1226393876625	302.234292916426	-16.9892063427842	-0.0565404038489099	0	-0.0064770489833193	0	8.7760835790154	0	0	-2.63253506416793	0
14.67	8.97924257977784	1056.22243661141	52.7478413520825	-0.102050162299254	0	-0.0376448010748337	-48.0126815648121	300.095929512284	-21.2922775805612	-0.0867745346036317	0	-0.00982249872887595	0	8.06565454834948	0	0	-1.66974714660295	0
14.68	26.3318991612612	1011.08142208282	51.2895846744763	-0.12162571232801	0	-0.0368032652245234	-29.6790610395433	294.067806684442	-25.1313023193672	-0.112711656623697	0	-0.0113632347581517	0	7.08441660188233	0	0	-0.396954449384823	0
14.69	40.9952209741982	951.385641258107	49.9272784630434	-0.139071912474866	0	-0.036469389462184	-10.2666546997743	284.23490271467	-28.4847800994822	-0.130452020539142	0	-0.0105003360895954	0	6.04590928250217	0	0	0.568739830817472	0
14.7	53.1434783858553	881.267725755778	48.2204665560901	-0.15417242700621	0	-0.0367891214933717	6.94691618405773	269.753702374854	-31.367399416523	-0.140068961637347	0	-0.0075569500145867	0	5.17178795705182	0	0	0.929936072347471	0
14.71	63.1003233443073	802.728939419748	45.8861728568291	-0.167373006193056	0	-0.0377117964824906	18.9951703063735	249.110982209637	-33.7901800157171	-0.14448473476266	0	-0.00360299256034725	0	4.59954166413471	0	0	0.546230655735123	0
14.72	68.779668064625	716.290172991282	43.1693599344322	-0.180326030803015	0	-0.0390447875621666	26.4461796875076	220.941070640657	-35.5352557516567	-0.146766148370745	0	-7.27117784888555e-05	0	4.49874230334642	0	0	-0.424223001734151	0
14.73	69.1021514028278	621.451537194711	40.1272458419791	-0.195460979117993	0	-0.0403110140106881	30.7427908041438	185.287500462345	-36.3288482530765	-0.151117880752197	0	0.00104376600963018	0	4.81228326789422	0	0	-1.62090358337318	0
14.74	66.215712444215	518.34634291321	36.5651653576774	-0.215057921852571	0	-0.0408089213776487	31.4463256206046	144.593289024812	-36.0967155404151	-0.164774905646336	0	-0.00297467454167774	0	5.00899435357106	0	0	-2.73783550036145	0
14.75	62.4713931975819	410.292312247758	32.4021845570451	-0.240881703997997	0	-0.0397185041231044	28.6800025859768	103.091621337918	-34.7721380689435	-0.198413693986214	0	-0.0164593769844988	0	4.54052663742095	0	0	-3.34611262590648	0
14.76	58.0341697344109	304.536434803121	27.7953008323384	-0.274994208847444	0	-0.0361482894738889	24.7638000237523	65.3316160964056	-31.9070444055387	-0.266889841282799	0	-0.0476351795572748	0	3.20010232248783	0	0	-3.01991511496546	0
14.77	52.6883203729225	209.829068583438	22.9403531581975	-0.319772022215828	0	-0.0285255726846565	21.632460445142	34.7889306088486	-27.24174832112	-0.398847035658861	0	-0.119332788987833	0	1.19561055593105	0	0	-1.80160162147617	0
14.78	47.1972482436172	133.397127691308	18.2819902462989	-0.374452490077154	0	-0.0144954957059363	0	0	0	0	0	0	0	-0.907315760936009	0	0	0	0
14.79	41.8273799244308	78.2265076268116	14.6068488089052	-0.426843028391793	0	0.00899074963613243	0	0	0	0	0	0	0	-2.58856327697836	0	0	0	0
14.8	35.6758704535794	42.7914735153672	12.3857623135922	-0.434866962210137	0	0.0431234183916061	0	0	0	0	0	0	0	-3.44284487851716	0	0	0	0
14.81	27.6714578138737	22.6581426921969	11.4599670858959	-0.298260084999927	0	0.0840793137406382	0	0	0	0	0	0	0	-3.23041502487285	0	0	0	0
14.82	0	0	0	0	0	0	0	0	0	0	0	0	0	0	0	0	0	0
14.83	0	0	0	0	0	0	0	0	0	0	0	0	0	0	0	0	0	0
14.84	0	0	0	0	0	0	0	0	0	0	0	0	0	0	0	0	0	0
14.85	0	0	0	0	0	0	0	0	0	0	0	0	0	0	0	0	0	0
14.86	0	0	0	0	0	0	0	0	0	0	0	0	0	0	0	0	0	0
14.87	0	0	0	0	0	0	0	0	0	0	0	0	0	0	0	0	0	0
14.88	0	0	0	0	0	0	0	0	0	0	0	0	0	0	0	0	0	0
14.89	0	0	0	0	0	0	0	0	0	0	0	0	0	0	0	0	0	0
14.9	0	0	0	0	0	0	0	0	0	0	0	0	0	0	0	0	0	0
14.91	0	0	0	0	0	0	0	0	0	0	0	0	0	0	0	0	0	0
14.92	0	0	0	0	0	0	-3.61750407320681	63.833671743645	-11.3634908994936	0.108309289787375	0	0.0314525546452369	0	0	0	0	0.986508841951605	0
14.93	0	0	0	0	0	0	-10.4154595670201	176.295754319916	-11.0845517241161	0.0318815626680508	0	0.0380460138318077	0	0	0	0	-0.370488380799027	0
14.94	0	0	0	0	0	0	-14.7215171397557	343.614730011096	-8.70026872976369	0.00401358122111318	0	0.037547834840343	0	0	0	0	-1.32574725742224	0
14.95	0	0	0	0	0	0	-23.8082819709321	535.484589354574	-3.69587615942793	-0.00916685567262488	0	0.0365030596022106	0	0	0	0	-2.12498732228356	0
